<svg width="73" height="22" viewBox="0 0 73 22" fill="none" xmlns="http://www.w3.org/2000/svg">
<rect width="73" height="22" rx="4" fill="#FE0000"/>
<path d="M9.75 7.5H10.9167H20.25" stroke="white" stroke-width="1.2" stroke-linecap="round" stroke-linejoin="round"/>
<path d="M19.0834 7.49935V15.666C19.0834 15.9754 18.9605 16.2722 18.7417 16.491C18.5229 16.7098 18.2262 16.8327 17.9167 16.8327H12.0834C11.774 16.8327 11.4772 16.7098 11.2585 16.491C11.0397 16.2722 10.9167 15.9754 10.9167 15.666V7.49935M12.6667 7.49935V6.33268C12.6667 6.02326 12.7897 5.72652 13.0085 5.50772C13.2272 5.28893 13.524 5.16602 13.8334 5.16602H16.1667C16.4762 5.16602 16.7729 5.28893 16.9917 5.50772C17.2105 5.72652 17.3334 6.02326 17.3334 6.33268V7.49935" stroke="white" stroke-width="1.2" stroke-linecap="round" stroke-linejoin="round"/>
<path d="M34.3087 10.764C34.3087 11.62 34.1367 12.368 33.7927 13.008C33.4487 13.64 32.9407 14.132 32.2687 14.484C31.6047 14.828 30.8047 15 29.8687 15H27.1807V6.54H29.8687C30.8047 6.54 31.6047 6.712 32.2687 7.056C32.9407 7.392 33.4487 7.88 33.7927 8.52C34.1367 9.152 34.3087 9.9 34.3087 10.764ZM29.7847 14.016C30.8887 14.016 31.7327 13.732 32.3167 13.164C32.9007 12.596 33.1927 11.796 33.1927 10.764C33.1927 9.732 32.9007 8.932 32.3167 8.364C31.7407 7.788 30.8967 7.5 29.7847 7.5H28.2727V14.016H29.7847ZM41.8423 11.34C41.8423 11.572 41.8263 11.772 41.7943 11.94H36.5263C36.5503 12.692 36.7623 13.256 37.1623 13.632C37.5703 14.008 38.0663 14.196 38.6503 14.196C39.1783 14.196 39.6183 14.064 39.9703 13.8C40.3303 13.528 40.5503 13.168 40.6303 12.72H41.7943C41.7143 13.176 41.5343 13.584 41.2543 13.944C40.9823 14.304 40.6263 14.584 40.1863 14.784C39.7463 14.984 39.2503 15.084 38.6983 15.084C38.0663 15.084 37.5063 14.948 37.0183 14.676C36.5303 14.404 36.1463 14.016 35.8663 13.512C35.5943 13 35.4583 12.4 35.4583 11.712C35.4583 11.024 35.5943 10.424 35.8663 9.912C36.1463 9.4 36.5303 9.008 37.0183 8.736C37.5063 8.464 38.0663 8.328 38.6983 8.328C39.3383 8.328 39.8943 8.464 40.3663 8.736C40.8463 9.008 41.2103 9.372 41.4583 9.828C41.7143 10.284 41.8423 10.788 41.8423 11.34ZM40.7383 11.412C40.7623 10.924 40.6823 10.516 40.4983 10.188C40.3143 9.86 40.0623 9.616 39.7423 9.456C39.4223 9.296 39.0743 9.216 38.6983 9.216C38.0983 9.216 37.5943 9.404 37.1863 9.78C36.7783 10.148 36.5583 10.692 36.5263 11.412H40.7383ZM44.3625 6.12V15H43.2705V6.12H44.3625ZM52.1782 11.34C52.1782 11.572 52.1622 11.772 52.1302 11.94H46.8622C46.8862 12.692 47.0982 13.256 47.4982 13.632C47.9062 14.008 48.4022 14.196 48.9862 14.196C49.5142 14.196 49.9542 14.064 50.3062 13.8C50.6662 13.528 50.8862 13.168 50.9662 12.72H52.1302C52.0502 13.176 51.8702 13.584 51.5902 13.944C51.3182 14.304 50.9622 14.584 50.5222 14.784C50.0822 14.984 49.5862 15.084 49.0342 15.084C48.4022 15.084 47.8422 14.948 47.3542 14.676C46.8662 14.404 46.4822 14.016 46.2022 13.512C45.9302 13 45.7942 12.4 45.7942 11.712C45.7942 11.024 45.9302 10.424 46.2022 9.912C46.4822 9.4 46.8662 9.008 47.3542 8.736C47.8422 8.464 48.4022 8.328 49.0342 8.328C49.6742 8.328 50.2302 8.464 50.7022 8.736C51.1822 9.008 51.5462 9.372 51.7942 9.828C52.0502 10.284 52.1782 10.788 52.1782 11.34ZM51.0742 11.412C51.0982 10.924 51.0182 10.516 50.8342 10.188C50.6502 9.86 50.3982 9.616 50.0782 9.456C49.7582 9.296 49.4102 9.216 49.0342 9.216C48.4342 9.216 47.9302 9.404 47.5222 9.78C47.1142 10.148 46.8942 10.692 46.8622 11.412H51.0742ZM56.7505 14.04V15H55.9345C55.2625 15 54.7585 14.84 54.4225 14.52C54.0945 14.2 53.9305 13.664 53.9305 12.912V9.36H52.9465V8.412H53.9305V6.768H55.0345V8.412H56.7385V9.36H55.0345V12.936C55.0345 13.36 55.1105 13.652 55.2625 13.812C55.4225 13.964 55.6945 14.04 56.0785 14.04H56.7505ZM64.143 11.34C64.143 11.572 64.127 11.772 64.095 11.94H58.827C58.851 12.692 59.063 13.256 59.463 13.632C59.871 14.008 60.367 14.196 60.951 14.196C61.479 14.196 61.919 14.064 62.271 13.8C62.631 13.528 62.851 13.168 62.931 12.72H64.095C64.015 13.176 63.835 13.584 63.555 13.944C63.283 14.304 62.927 14.584 62.487 14.784C62.047 14.984 61.551 15.084 60.999 15.084C60.367 15.084 59.807 14.948 59.319 14.676C58.831 14.404 58.447 14.016 58.167 13.512C57.895 13 57.759 12.4 57.759 11.712C57.759 11.024 57.895 10.424 58.167 9.912C58.447 9.4 58.831 9.008 59.319 8.736C59.807 8.464 60.367 8.328 60.999 8.328C61.639 8.328 62.195 8.464 62.667 8.736C63.147 9.008 63.511 9.372 63.759 9.828C64.015 10.284 64.143 10.788 64.143 11.34ZM63.039 11.412C63.063 10.924 62.983 10.516 62.799 10.188C62.615 9.86 62.363 9.616 62.043 9.456C61.723 9.296 61.375 9.216 60.999 9.216C60.399 9.216 59.895 9.404 59.487 9.78C59.079 10.148 58.859 10.692 58.827 11.412H63.039Z" fill="white"/>
</svg>
